<svg width="1090" height="48" viewBox="0 0 1090 48" fill="none" xmlns="http://www.w3.org/2000/svg">
<path d="M633.851 37.2253L629.676 36.0893L630.78 40.2727L633.851 37.2253ZM456.717 8.24552C457.266 8.87849 457.854 9.52412 458.481 10.1803L459.023 9.66267C458.404 9.01471 457.824 8.37794 457.283 7.75448L456.717 8.24552ZM462.232 13.8049C463.466 14.9127 464.801 16.0385 466.235 17.1737L466.7 16.5861C465.277 15.4602 463.955 14.3443 462.733 13.2473L462.232 13.8049ZM470.419 20.3047C471.797 21.281 473.247 22.2583 474.769 23.2312L475.173 22.5999C473.661 21.6332 472.22 20.6625 470.852 19.6933L470.419 20.3047ZM479.217 25.9388C480.683 26.7888 482.205 27.6315 483.783 28.4631L484.133 27.8001C482.564 26.9732 481.05 26.1354 479.593 25.2905L479.217 25.9388ZM488.449 30.8078C489.987 31.5442 491.57 32.2683 493.2 32.9773L493.499 32.2901C491.878 31.5848 490.302 30.8644 488.773 30.132L488.449 30.8078ZM498.024 34.9757C499.614 35.6024 501.243 36.2137 502.911 36.8075L503.163 36.1015C501.502 35.5105 499.881 34.9021 498.299 34.2786L498.024 34.9757ZM507.855 38.4766C509.486 38.998 511.15 39.5021 512.849 39.987L513.055 39.2665C511.364 38.7837 509.707 38.2818 508.083 37.7629L507.855 38.4766ZM517.888 41.3424C519.551 41.7628 521.244 42.1646 522.967 42.5463L523.129 41.8146C521.413 41.4346 519.727 41.0345 518.072 40.6159L517.888 41.3424ZM528.084 43.6019C529.773 43.9254 531.49 44.2293 533.234 44.5125L533.354 43.7728C531.617 43.4908 529.907 43.188 528.224 42.8659L528.084 43.6019ZM538.386 45.2768C540.084 45.5053 541.807 45.714 543.554 45.9018L543.634 45.1568C541.894 44.9696 540.178 44.7617 538.485 44.5341L538.386 45.2768ZM548.747 46.3918C550.463 46.5315 552.202 46.651 553.962 46.7493L554.004 46.0011C552.25 45.9031 550.518 45.784 548.807 45.6449L548.747 46.3918ZM559.178 46.9759C560.891 47.0293 562.624 47.0627 564.377 47.0753L564.382 46.326C562.635 46.3134 560.908 46.2801 559.201 46.2269L559.178 46.9759ZM569.595 47.0515C571.323 47.0234 573.069 46.9752 574.833 46.9061L574.804 46.1573C573.045 46.2262 571.305 46.2742 569.582 46.3022L569.595 47.0515ZM580.016 46.6455C581.733 46.5401 583.467 46.4151 585.217 46.2697L585.155 45.5229C583.41 45.6679 581.682 45.7925 579.97 45.8975L580.016 46.6455ZM590.434 45.7803C592.137 45.6024 593.854 45.4054 595.587 45.1886L595.494 44.4451C593.766 44.6612 592.054 44.8577 590.356 45.035L590.434 45.7803ZM600.761 44.4883C602.467 44.2401 604.187 43.9729 605.92 43.686L605.798 42.9467C604.069 43.2327 602.354 43.4992 600.653 43.7467L600.761 44.4883ZM611.04 42.789C612.743 42.4741 614.459 42.1404 616.188 41.7874L616.038 41.0532C614.314 41.4052 612.602 41.738 610.904 42.0521L611.04 42.789ZM621.257 40.7052C622.943 40.3296 624.64 39.9359 626.349 39.5235L626.174 38.795C624.468 39.2064 622.775 39.5991 621.094 39.9737L621.257 40.7052Z" fill="#5E4765" fill-opacity="0.6"/>
<path d="M1089.85 36.9693L1085.68 35.8333L1086.78 40.0166L1089.85 36.9693ZM912.717 7.98945C913.266 8.62242 913.854 9.26805 914.481 9.92425L915.023 9.40659C914.404 8.75863 913.824 8.12187 913.283 7.49841L912.717 7.98945ZM918.232 13.5488C919.466 14.6566 920.801 15.7824 922.235 16.9176L922.7 16.3301C921.277 15.2041 919.955 14.0882 918.733 12.9912L918.232 13.5488ZM926.419 20.0487C927.797 21.0249 929.247 22.0022 930.769 22.9752L931.173 22.3438C929.661 21.3771 928.22 20.4065 926.852 19.4372L926.419 20.0487ZM935.217 25.6827C936.683 26.5327 938.205 27.3754 939.783 28.207L940.133 27.544C938.564 26.7172 937.05 25.8794 935.593 25.0344L935.217 25.6827ZM944.449 30.5518C945.987 31.2881 947.57 32.0122 949.2 32.7212L949.499 32.034C947.878 31.3287 946.302 30.6084 944.773 29.8759L944.449 30.5518ZM954.024 34.7197C955.614 35.3463 957.243 35.9577 958.911 36.5514L959.163 35.8454C957.502 35.2545 955.881 34.6461 954.299 34.0225L954.024 34.7197ZM963.855 38.2205C965.486 38.7419 967.15 39.246 968.849 39.731L969.055 39.0104C967.364 38.5276 965.707 38.0258 964.083 37.5068L963.855 38.2205ZM973.888 41.0863C975.551 41.5067 977.244 41.9085 978.967 42.2902L979.129 41.5586C977.413 41.1785 975.727 40.7784 974.072 40.3598L973.888 41.0863ZM984.084 43.3459C985.773 43.6693 987.49 43.9733 989.234 44.2564L989.354 43.5167C987.617 43.2347 985.907 42.932 984.224 42.6098L984.084 43.3459ZM994.386 45.0207C996.084 45.2492 997.807 45.4579 999.554 45.6458L999.634 44.9007C997.894 44.7136 996.178 44.5056 994.485 44.278L994.386 45.0207ZM1004.75 46.1357C1006.46 46.2754 1008.2 46.3949 1009.96 46.4932L1010 45.745C1008.25 45.647 1006.52 45.528 1004.81 45.3888L1004.75 46.1357ZM1015.18 46.7199C1016.89 46.7732 1018.62 46.8066 1020.38 46.8192L1020.38 46.0699C1018.64 46.0573 1016.91 46.024 1015.2 45.9709L1015.18 46.7199ZM1025.59 46.7954C1027.32 46.7673 1029.07 46.7191 1030.83 46.65L1030.8 45.9012C1029.05 45.9701 1027.3 46.0182 1025.58 46.0461L1025.59 46.7954ZM1036.02 46.3894C1037.73 46.2841 1039.47 46.159 1041.22 46.0136L1041.15 45.2668C1039.41 45.4118 1037.68 45.5364 1035.97 45.6414L1036.02 46.3894ZM1046.43 45.5242C1048.14 45.3464 1049.85 45.1493 1051.59 44.9326L1051.49 44.189C1049.77 44.4051 1048.05 44.6016 1046.36 44.7789L1046.43 45.5242ZM1056.76 44.2322C1058.47 43.984 1060.19 43.7168 1061.92 43.43L1061.8 42.6907C1060.07 42.9767 1058.35 43.2432 1056.65 43.4906L1056.76 44.2322ZM1067.04 42.5329C1068.74 42.218 1070.46 41.8843 1072.19 41.5313L1072.04 40.7971C1070.31 41.1492 1068.6 41.482 1066.9 41.796L1067.04 42.5329ZM1077.26 40.4491C1078.94 40.0736 1080.64 39.6798 1082.35 39.2674L1082.17 38.5389C1080.47 38.9503 1078.78 39.3431 1077.09 39.7177L1077.26 40.4491Z" fill="#5E4765" fill-opacity="0.6"/>
<path d="M405.659 10.481L401.485 11.617L402.588 7.43363L405.659 10.481ZM228.526 39.4608C229.075 38.8278 229.663 38.1822 230.29 37.526L230.831 38.0437C230.212 38.6916 229.632 39.3284 229.092 39.9519L228.526 39.4608ZM234.041 33.9014C235.275 32.7937 236.609 31.6678 238.043 30.5326L238.508 31.1202C237.086 32.2462 235.763 33.362 234.541 34.4591L234.041 33.9014ZM242.228 27.4016C243.606 26.4253 245.056 25.448 246.578 24.4751L246.981 25.1065C245.469 26.0731 244.029 27.0438 242.661 28.0131L242.228 27.4016ZM251.026 21.7676C252.492 20.9175 254.014 20.0748 255.592 19.2433L255.941 19.9062C254.372 20.7331 252.859 21.5709 251.401 22.4159L251.026 21.7676ZM260.258 16.8985C261.795 16.1621 263.379 15.438 265.009 14.7291L265.308 15.4162C263.686 16.1216 262.111 16.8419 260.582 17.5743L260.258 16.8985ZM269.832 12.7306C271.422 12.104 273.051 11.4926 274.72 10.8988L274.971 11.6048C273.311 12.1958 271.689 12.8042 270.107 13.4278L269.832 12.7306ZM279.664 9.22972C281.294 8.70835 282.959 8.20426 284.658 7.71931L284.863 8.43989C283.172 8.92269 281.515 9.4245 279.892 9.94348L279.664 9.22972ZM289.697 6.36392C291.36 5.94353 293.053 5.54172 294.776 5.16006L294.938 5.8917C293.222 6.27176 291.536 6.67185 289.88 7.09043L289.697 6.36392ZM299.892 4.10441C301.582 3.78097 303.299 3.47701 305.042 3.19386L305.163 3.93354C303.426 4.21556 301.716 4.5183 300.033 4.84042L299.892 4.10441ZM310.194 2.42958C311.893 2.20107 313.616 1.99234 315.363 1.80451L315.443 2.54958C313.703 2.7367 311.986 2.94464 310.294 3.17226L310.194 2.42958ZM320.555 1.31453C322.272 1.17488 324.011 1.05538 325.771 0.957031L325.813 1.70523C324.059 1.80323 322.326 1.92229 320.616 2.06143L320.555 1.31453ZM330.986 0.730412C332.7 0.677037 334.433 0.643627 336.185 0.631026L336.191 1.38037C334.444 1.39293 332.717 1.42623 331.01 1.47942L330.986 0.730412ZM341.403 0.65488C343.131 0.682931 344.878 0.73113 346.642 0.800235L346.612 1.54903C344.854 1.48015 343.113 1.43211 341.391 1.40415L341.403 0.65488ZM351.824 1.06088C353.542 1.1662 355.275 1.29123 357.025 1.43663L356.963 2.18342C355.219 2.03847 353.49 1.91383 351.779 1.80884L351.824 1.06088ZM362.243 1.92606C363.946 2.1039 365.663 2.30092 367.395 2.5177L367.302 3.26127C365.575 3.04512 363.863 2.84868 362.165 2.67138L362.243 1.92606ZM372.57 3.21807C374.276 3.46626 375.995 3.73349 377.729 4.0203L377.606 4.75961C375.878 4.4736 374.163 4.20711 372.462 3.95963L372.57 3.21807ZM382.849 4.91735C384.552 5.23227 386.268 5.56598 387.997 5.91895L387.847 6.65317C386.122 6.30112 384.411 5.9683 382.712 5.65423L382.849 4.91735ZM393.066 7.00118C394.751 7.37672 396.449 7.77048 398.158 8.18286L397.982 8.91133C396.277 8.49997 394.584 8.1072 392.903 7.73261L393.066 7.00118Z" fill="#5E4765" fill-opacity="0.6"/>
<path d="M861.851 10.481L857.676 11.617L858.78 7.43363L861.851 10.481ZM684.717 39.4608C685.266 38.8278 685.854 38.1822 686.481 37.526L687.023 38.0437C686.404 38.6916 685.824 39.3284 685.283 39.9519L684.717 39.4608ZM690.232 33.9014C691.466 32.7937 692.801 31.6678 694.235 30.5326L694.7 31.1202C693.277 32.2462 691.955 33.362 690.733 34.4591L690.232 33.9014ZM698.419 27.4016C699.797 26.4253 701.247 25.448 702.769 24.4751L703.173 25.1065C701.661 26.0731 700.22 27.0438 698.852 28.0131L698.419 27.4016ZM707.217 21.7676C708.683 20.9175 710.205 20.0748 711.783 19.2433L712.133 19.9062C710.564 20.7331 709.05 21.5709 707.593 22.4159L707.217 21.7676ZM716.449 16.8985C717.987 16.1621 719.57 15.438 721.2 14.7291L721.499 15.4162C719.878 16.1216 718.302 16.8419 716.773 17.5743L716.449 16.8985ZM726.024 12.7306C727.614 12.104 729.243 11.4926 730.911 10.8988L731.163 11.6048C729.502 12.1958 727.881 12.8042 726.299 13.4278L726.024 12.7306ZM735.855 9.22972C737.486 8.70835 739.15 8.20426 740.849 7.71931L741.055 8.43989C739.364 8.92269 737.707 9.4245 736.083 9.94348L735.855 9.22972ZM745.888 6.36392C747.551 5.94353 749.244 5.54172 750.967 5.16006L751.129 5.8917C749.413 6.27176 747.727 6.67185 746.072 7.09043L745.888 6.36392ZM756.084 4.10441C757.773 3.78097 759.49 3.47701 761.234 3.19386L761.354 3.93354C759.617 4.21556 757.907 4.5183 756.224 4.84042L756.084 4.10441ZM766.386 2.42958C768.085 2.20107 769.807 1.99234 771.554 1.80451L771.634 2.54958C769.894 2.7367 768.178 2.94464 766.485 3.17226L766.386 2.42958ZM776.747 1.31453C778.463 1.17488 780.202 1.05538 781.962 0.957031L782.004 1.70523C780.25 1.80323 778.518 1.92229 776.807 2.06143L776.747 1.31453ZM787.178 0.730412C788.891 0.677037 790.624 0.643627 792.377 0.631026L792.382 1.38037C790.635 1.39293 788.908 1.42623 787.201 1.47942L787.178 0.730412ZM797.595 0.65488C799.323 0.682931 801.069 0.73113 802.833 0.800235L802.804 1.54903C801.045 1.48015 799.305 1.43211 797.582 1.40415L797.595 0.65488ZM808.016 1.06088C809.733 1.1662 811.467 1.29123 813.217 1.43663L813.155 2.18342C811.41 2.03847 809.682 1.91383 807.97 1.80884L808.016 1.06088ZM818.434 1.92606C820.137 2.1039 821.854 2.30092 823.587 2.5177L823.494 3.26127C821.766 3.04512 820.054 2.84868 818.356 2.67138L818.434 1.92606ZM828.761 3.21807C830.467 3.46626 832.187 3.73349 833.92 4.0203L833.798 4.75961C832.069 4.4736 830.354 4.20711 828.653 3.95963L828.761 3.21807ZM839.04 4.91735C840.743 5.23227 842.459 5.56598 844.188 5.91895L844.038 6.65317C842.314 6.30112 840.602 5.9683 838.904 5.65423L839.04 4.91735ZM849.257 7.00118C850.943 7.37672 852.64 7.77048 854.349 8.18286L854.174 8.91133C852.468 8.49997 850.775 8.1072 849.094 7.73261L849.257 7.00118Z" fill="#5E4765" fill-opacity="0.6"/>
<path d="M177.851 36.9693L173.676 35.8333L174.78 40.0166L177.851 36.9693ZM0.716968 7.98945C1.26605 8.62242 1.85414 9.26805 2.48107 9.92425L3.0229 9.40659C2.40385 8.75863 1.82387 8.12187 1.28303 7.49841L0.716968 7.98945ZM6.23223 13.5488C7.46622 14.6566 8.80059 15.7824 10.2347 16.9176L10.6998 16.3301C9.27734 15.2041 7.95484 14.0882 6.73283 12.9912L6.23223 13.5488ZM14.419 20.0487C15.7969 21.0249 17.2471 22.0022 18.7692 22.9752L19.1728 22.3438C17.6606 21.3771 16.2203 20.4065 14.8522 19.4372L14.419 20.0487ZM23.217 25.6827C24.6831 26.5327 26.2054 27.3754 27.7835 28.207L28.1328 27.544C26.5636 26.7172 25.0502 25.8794 23.5928 25.0344L23.217 25.6827ZM32.4494 30.5518C33.9867 31.2881 35.5703 32.0122 37.2 32.7212L37.499 32.034C35.8775 31.3287 34.3022 30.6084 32.7732 29.8759L32.4494 30.5518ZM42.0238 34.7197C43.6136 35.3463 45.2429 35.9577 46.9113 36.5514L47.1626 35.8454C45.502 35.2545 43.8806 34.6461 42.2985 34.0225L42.0238 34.7197ZM51.8552 38.2205C53.4857 38.7419 55.1504 39.246 56.8492 39.731L57.0549 39.0104C55.3637 38.5276 53.7065 38.0258 52.0835 37.5068L51.8552 38.2205ZM61.8879 41.0863C63.5509 41.5067 65.2441 41.9085 66.9672 42.2902L67.1293 41.5586C65.4134 41.1785 63.7274 40.7784 62.0716 40.3598L61.8879 41.0863ZM72.0835 43.3459C73.7734 43.6693 75.4902 43.9733 77.2339 44.2564L77.354 43.5167C75.6173 43.2347 73.9074 42.932 72.2244 42.6098L72.0835 43.3459ZM82.3856 45.0207C84.0845 45.2492 85.8074 45.4579 87.5542 45.6458L87.6343 44.9007C85.8941 44.7136 84.1778 44.5056 82.4854 44.278L82.3856 45.0207ZM92.7466 46.1357C94.4634 46.2754 96.202 46.3949 97.9623 46.4932L98.0041 45.745C96.2501 45.647 94.5178 45.528 92.8074 45.3888L92.7466 46.1357ZM103.178 46.7199C104.891 46.7732 106.624 46.8066 108.377 46.8192L108.382 46.0699C106.635 46.0573 104.908 46.024 103.201 45.9709L103.178 46.7199ZM113.595 46.7954C115.323 46.7673 117.069 46.7191 118.833 46.65L118.804 45.9012C117.045 45.9701 115.305 46.0182 113.582 46.0461L113.595 46.7954ZM124.016 46.3894C125.733 46.2841 127.467 46.159 129.217 46.0136L129.155 45.2668C127.41 45.4118 125.682 45.5364 123.97 45.6414L124.016 46.3894ZM134.434 45.5242C136.137 45.3464 137.854 45.1493 139.587 44.9326L139.494 44.189C137.766 44.4051 136.054 44.6016 134.356 44.7789L134.434 45.5242ZM144.761 44.2322C146.467 43.984 148.187 43.7168 149.92 43.43L149.798 42.6907C148.069 42.9767 146.354 43.2432 144.653 43.4906L144.761 44.2322ZM155.04 42.5329C156.743 42.218 158.459 41.8843 160.188 41.5313L160.038 40.7971C158.314 41.1492 156.602 41.482 154.904 41.796L155.04 42.5329ZM165.257 40.4491C166.943 40.0736 168.64 39.6798 170.349 39.2674L170.174 38.5389C168.468 38.9503 166.775 39.3431 165.094 39.7177L165.257 40.4491Z" fill="#5E4765" fill-opacity="0.6"/>
</svg>
