<svg width="178" height="40" viewBox="0 0 178 40" fill="none" xmlns="http://www.w3.org/2000/svg">
<path d="M177.823 10.4661L173.649 11.6021L174.752 7.4187L177.823 10.4661ZM0.689624 39.4459C1.23871 38.8129 1.8268 38.1673 2.45372 37.5111L2.99556 38.0287C2.37651 38.6767 1.79652 39.3135 1.25569 39.9369L0.689624 39.4459ZM6.20489 33.8865C7.43888 32.7787 8.77325 31.6529 10.2074 30.5177L10.6725 31.1053C9.25 32.2312 7.9275 33.3471 6.70548 34.4441L6.20489 33.8865ZM14.3916 27.3867C15.7696 26.4104 17.2198 25.4331 18.7419 24.4602L19.1455 25.0916C17.6333 26.0582 16.1929 27.0289 14.8248 27.9981L14.3916 27.3867ZM23.1896 21.7527C24.6558 20.9026 26.178 20.0599 27.7561 19.2283L28.1055 19.8913C26.5362 20.7182 25.0228 21.556 23.5655 22.4009L23.1896 21.7527ZM32.4221 16.8836C33.9593 16.1472 35.5429 15.4231 37.1727 14.7141L37.4716 15.4013C35.8502 16.1067 34.2749 16.827 32.7458 17.5594L32.4221 16.8836ZM41.9964 12.7157C43.5863 12.089 45.2155 11.4777 46.884 10.8839L47.1352 11.5899C45.4747 12.1809 43.8533 12.7893 42.2712 13.4128L41.9964 12.7157ZM51.8279 9.21479C53.4584 8.69342 55.1231 8.18933 56.8218 7.70438L57.0275 8.42496C55.3363 8.90776 53.6792 9.40958 52.0561 9.92856L51.8279 9.21479ZM61.8606 6.34899C63.5236 5.9286 65.2167 5.52679 66.9399 5.14513L67.1019 5.87677C65.386 6.25683 63.7001 6.65693 62.0443 7.07551L61.8606 6.34899ZM72.0562 4.08948C73.7461 3.76604 75.4629 3.46208 77.2065 3.17893L77.3267 3.91861C75.5899 4.20063 73.88 4.50337 72.197 4.82549L72.0562 4.08948ZM82.3582 2.41465C84.0572 2.18615 85.7801 1.97741 87.5268 1.78959L87.607 2.53466C85.8668 2.72178 84.1505 2.92971 82.4581 3.15733L82.3582 2.41465ZM92.7193 1.2996C94.436 1.15995 96.1746 1.04046 97.935 0.942105L97.9768 1.6903C96.2227 1.7883 94.4905 1.90736 92.78 2.0465L92.7193 1.2996ZM103.15 0.715486C104.864 0.662111 106.597 0.628702 108.349 0.616098L108.355 1.36545C106.608 1.378 104.881 1.4113 103.174 1.46449L103.15 0.715486ZM113.567 0.639952C115.295 0.668005 117.042 0.716204 118.806 0.785308L118.777 1.5341C117.018 1.46522 115.277 1.41718 113.555 1.38922L113.567 0.639952ZM123.988 1.04595C125.706 1.15127 127.439 1.2763 129.189 1.4217L129.127 2.16849C127.383 2.02354 125.654 1.8989 123.943 1.79391L123.988 1.04595ZM134.407 1.91114C136.11 2.08897 137.827 2.286 139.56 2.50277L139.466 3.24634C137.739 3.0302 136.027 2.83376 134.329 2.65645L134.407 1.91114ZM144.734 3.20315C146.44 3.45133 148.159 3.71856 149.893 4.00537L149.77 4.74469C148.042 4.45867 146.327 4.19219 144.626 3.9447L144.734 3.20315ZM155.013 4.90243C156.716 5.21734 158.432 5.55105 160.161 5.90402L160.011 6.63824C158.286 6.2862 156.575 5.95338 154.876 5.6393L155.013 4.90243ZM165.23 6.98625C166.915 7.3618 168.613 7.75555 170.322 8.16794L170.146 8.8964C168.441 8.48504 166.748 8.09227 165.067 7.71769L165.23 6.98625Z" fill="#5E4765" fill-opacity="0.6"/>
</svg>
