<svg width="179" height="40" viewBox="0 0 179 40" fill="none" xmlns="http://www.w3.org/2000/svg">
<path d="M178.015 29.9543L173.84 28.8183L174.944 33.0017L178.015 29.9543ZM0.881031 0.974526C1.43011 1.6075 2.01821 2.25313 2.64513 2.90933L3.18696 2.39167C2.56791 1.74371 1.98793 1.10695 1.44709 0.483482L0.881031 0.974526ZM6.39629 6.53391C7.63029 7.64168 8.96466 8.76752 10.3988 9.90271L10.8639 9.31513C9.4414 8.18918 8.11891 7.07329 6.89689 5.97627L6.39629 6.53391ZM14.583 13.0337C15.961 14.01 17.4112 14.9873 18.9333 15.9602L19.3369 15.3289C17.8247 14.3622 16.3843 13.3915 15.0162 12.4223L14.583 13.0337ZM23.381 18.6678C24.8472 19.5178 26.3694 20.3605 27.9475 21.1921L28.2969 20.5291C26.7276 19.7022 25.2142 18.8644 23.7569 18.0195L23.381 18.6678ZM32.6135 23.5368C34.1507 24.2732 35.7343 24.9973 37.3641 25.7063L37.663 25.0191C36.0416 24.3138 34.4663 23.5934 32.9372 22.861L32.6135 23.5368ZM42.1878 27.7047C43.7777 28.3314 45.4069 28.9427 47.0754 29.5365L47.3266 28.8305C45.6661 28.2395 44.0447 27.6311 42.4626 27.0076L42.1878 27.7047ZM52.0193 31.2056C53.6498 31.727 55.3145 32.2311 57.0132 32.716L57.2189 31.9955C55.5277 31.5127 53.8706 31.0108 52.2475 30.4919L52.0193 31.2056ZM62.052 34.0714C63.715 34.4918 65.4081 34.8936 67.1313 35.2753L67.2934 34.5436C65.5774 34.1636 63.8915 33.7635 62.2357 33.3449L62.052 34.0714ZM72.2476 36.3309C73.9375 36.6544 75.6543 36.9583 77.3979 37.2415L77.5181 36.5018C75.7813 36.2198 74.0714 35.917 72.3884 35.5949L72.2476 36.3309ZM82.5496 38.0058C84.2486 38.2343 85.9715 38.443 87.7182 38.6308L87.7984 37.8858C86.0582 37.6986 84.3419 37.4907 82.6495 37.2631L82.5496 38.0058ZM92.9107 39.1208C94.6274 39.2605 96.366 39.38 98.1264 39.4783L98.1682 38.7301C96.4141 38.6321 94.6819 38.5131 92.9714 38.3739L92.9107 39.1208ZM103.342 39.7049C105.055 39.7583 106.788 39.7917 108.541 39.8043L108.546 39.055C106.8 39.0424 105.073 39.0091 103.365 38.9559L103.342 39.7049ZM113.759 39.7805C115.487 39.7524 117.233 39.7042 118.997 39.6351L118.968 38.8863C117.209 38.9552 115.469 39.0032 113.747 39.0312L113.759 39.7805ZM124.18 39.3745C125.897 39.2691 127.631 39.1441 129.381 38.9987L129.319 38.2519C127.574 38.3969 125.846 38.5215 124.134 38.6265L124.18 39.3745ZM134.598 38.5093C136.301 38.3314 138.019 38.1344 139.751 37.9176L139.658 37.1741C137.931 37.3902 136.218 37.5867 134.521 37.764L134.598 38.5093ZM144.925 37.2173C146.631 36.9691 148.351 36.7019 150.084 36.4151L149.962 35.6757C148.233 35.9618 146.518 36.2282 144.818 36.4757L144.925 37.2173ZM155.204 35.518C156.907 35.2031 158.623 34.8694 160.352 34.5164L160.202 33.7822C158.478 34.1342 156.766 34.467 155.068 34.7811L155.204 35.518ZM165.421 33.4342C167.107 33.0586 168.804 32.6649 170.513 32.2525L170.338 31.524C168.633 31.9354 166.939 32.3282 165.258 32.7027L165.421 33.4342Z" fill="#5E4765" fill-opacity="0.6"/>
</svg>
