<svg width="30" height="30" viewBox="0 0 30 30" fill="none" xmlns="http://www.w3.org/2000/svg">
<path d="M21.6109 0H6.10034C5.43762 0 4.90039 0.537228 4.90039 1.20002V28.8C4.90039 29.4627 5.43762 30 6.10041 30H25.7003C26.363 30 26.9003 29.4628 26.9003 28.8V5.28944L21.6109 0Z" fill="#E1E6E9"/>
<path d="M26.8996 16.5324H3.09961V24.7516H26.8996V16.5324Z" fill="#27A2DB"/>
<path d="M11.706 18.818C12.1908 19.2568 12.4326 19.8671 12.4326 20.6491C12.4326 21.4307 12.1978 22.0495 11.7277 22.505C11.2575 22.9608 10.538 23.1886 9.5696 23.1886H7.90039V18.1596H9.627C10.5286 18.1596 11.2218 18.3791 11.706 18.818ZM11.5766 20.6704C11.5766 19.5193 10.9173 18.9438 9.5983 18.9438H8.74935V22.3899H9.69196C10.3009 22.3899 10.7675 22.245 11.0913 21.9546C11.415 21.6646 11.5766 21.2366 11.5766 20.6704Z" fill="#EBF0F3"/>
<path d="M17.7343 22.4942C17.2261 22.9907 16.5979 23.2389 15.8497 23.2389C15.1014 23.2389 14.4732 22.9907 13.965 22.4942C13.4562 21.998 13.2021 21.3791 13.2021 20.6382C13.2021 19.897 13.4562 19.2784 13.965 18.782C14.4732 18.2855 15.1014 18.0376 15.8497 18.0376C16.5979 18.0376 17.2261 18.2855 17.7343 18.782C18.2431 19.2784 18.4972 19.897 18.4972 20.6382C18.4972 21.3791 18.2431 21.998 17.7343 22.4942ZM17.1125 19.3467C16.7694 18.9919 16.3484 18.8145 15.8497 18.8145C15.3508 18.8145 14.9298 18.9919 14.5868 19.3467C14.2443 19.7018 14.0728 20.1321 14.0728 20.6382C14.0728 21.1444 14.2443 21.5747 14.5868 21.9295C14.9299 22.2846 15.3509 22.462 15.8497 22.462C16.3485 22.462 16.7695 22.2846 17.1125 21.9295C17.455 21.5747 17.6266 21.1443 17.6266 20.6382C17.6266 20.1321 17.4551 19.7017 17.1125 19.3467Z" fill="#EBF0F3"/>
<path d="M21.865 22.4187C22.1571 22.4187 22.4089 22.3698 22.6203 22.2714C22.831 22.1731 23.0518 22.0159 23.2824 21.8001L23.8287 22.3613C23.2964 22.9512 22.6501 23.2463 21.8901 23.2463C21.1296 23.2463 20.499 23.0016 19.9979 22.5124C19.4967 22.0232 19.2461 21.4044 19.2461 20.6561C19.2461 19.9079 19.5014 19.2846 20.0125 18.7855C20.523 18.2869 21.1682 18.0376 21.9475 18.0376C22.7267 18.0376 23.3778 18.3253 23.9006 18.9009L23.3614 19.4907C23.1214 19.2606 22.8948 19.1 22.6811 19.0086C22.4679 18.9176 22.2174 18.8719 21.9293 18.8719C21.4211 18.8719 20.9943 19.0364 20.6489 19.3649C20.3034 19.6933 20.1307 20.1131 20.1307 20.6239C20.1307 21.1348 20.3023 21.5616 20.6453 21.9044C20.9885 22.2474 21.3948 22.4187 21.865 22.4187Z" fill="#EBF0F3"/>
<path d="M3.09961 24.7514L4.89964 26.4252V24.7514H3.09961Z" fill="#2D93BA"/>
<path d="M21.6104 5.28944H26.8998L21.6104 0L21.6104 5.28944Z" fill="#EBF0F3"/>
<path d="M22.6279 5.28944L26.8997 7.76789V5.28944H22.6279Z" fill="#D5D6DB"/>
</svg>
