<svg width="882" height="1639" viewBox="0 0 882 1639" fill="none" xmlns="http://www.w3.org/2000/svg">
<g opacity="0.03">
<path d="M163.9 759.923H342.699V879.095H163.9V759.923Z" fill="#263238"/>
<path d="M461.899 759.923H640.698V879.095H461.899V759.923Z" fill="#8BC34A"/>
<path d="M759.907 759.923H879.095V879.095H759.907V759.923Z" fill="#263238"/>
<path d="M1296.3 759.923H1475.08V879.095H1296.3V759.923ZM759.907 1296.32H879.095V1475.1H759.907V1296.32Z" fill="#263238"/>
<path d="M759.907 998.273H879.095V1177.07H759.907V998.273ZM759.907 461.894H879.095V640.676H759.907V461.894Z" fill="#8BC34A"/>
<path d="M759.902 163.9H879.09V342.699H759.902V163.9Z" fill="#263238"/>
<path d="M1137.97 1053.65L1264.39 1180.08L1180.13 1264.32L1053.71 1137.92L1137.97 1053.65ZM458.806 374.544L585.271 500.96L500.994 585.287L374.528 458.87L458.806 374.544Z" fill="#263238"/>
<path d="M248.194 163.9L374.61 290.316L290.316 374.594L163.9 248.178L248.194 163.9ZM1264.24 290.349L1390.72 163.933L1474.99 248.243L1348.5 374.659L1264.24 290.349Z" fill="#8BC34A"/>
<path d="M1053.68 501.06L1180.1 374.644L1264.37 458.937L1137.96 585.353L1053.68 501.06ZM374.609 1180.15L501.058 1053.68L585.385 1137.99L458.92 1264.46L374.609 1180.15Z" fill="#263238"/>
<path d="M163.882 1390.84L290.282 1264.43L374.559 1348.7L248.159 1475.12L163.882 1390.84Z" fill="#8BC34A"/>
</g>
</svg>
